<?xml version="1.0" encoding="UTF-8"?>
<svg width="430px" height="23px" viewBox="0 0 430 23" version="1.1" xmlns="http://www.w3.org/2000/svg" xmlns:xlink="http://www.w3.org/1999/xlink">
    <!-- Generator: Sketch 52.6 (67491) - http://www.bohemiancoding.com/sketch -->
    <title>Group</title>
    <desc>Created with Sketch.</desc>
    <g id="Page-1" stroke="none" stroke-width="1" fill="none" fill-rule="evenodd" opacity="0.900000036" stroke-linecap="round">
        <g id="Group" transform="translate(2.000000, 2.000000)" stroke-width="4">
            <path d="M137,0 C147.833333,0 147.833333,19 158.666667,19 C169.5,19 169.5,1.45426807e-16 180.333333,0 C191.166667,0 191.166667,19 202,19 C212.833333,19 212.833333,1.45426807e-16 223.666667,0 C234.5,0 234.5,19 245.333333,19 C256.166667,19 256.166667,1.45426807e-16 267,0" id="Path-3" stroke="#FFA811"></path>
            <path d="M267,0 C277.823969,0 277.823969,19 288.647938,19 C299.471908,19 299.471908,1.45426807e-16 310.295877,0 C321.119846,0 321.119846,19 331.943815,19 C342.767784,19 342.767784,1.45426807e-16 353.591753,0 C364.415723,0 364.415723,19 375.239692,19 C386.063661,19 386.063661,1.45426807e-16 396.88763,0 C407.711599,0 405.734051,12.4594727 426,12.4594727" id="Path-3-Copy" stroke="#FFA811"></path>
            <path d="M0,19 C10.7962251,19 10.7962251,-8.29226818e-15 21.5924502,-8.43769499e-15 C32.3886754,-8.43769499e-15 32.3886754,19 43.1849005,19 C53.9811256,19 53.9811256,-8.29226818e-15 64.7773507,-8.43769499e-15 C75.5735758,-8.43769499e-15 75.5735758,19 86.369801,19 C97.1660261,19 97.1660261,-8.29226818e-15 107.962251,-8.43769499e-15 C118.758476,-8.43769499e-15 116.785996,12.4594727 137,12.4594727" id="Path-3-Copy-3" stroke="#FFB129" transform="translate(68.500000, 9.500000) rotate(-180.000000) translate(-68.500000, -9.500000) "></path>
        </g>
    </g>
</svg>